<?xml version="1.0" encoding="UTF-8"?>
<svg xmlns="http://www.w3.org/2000/svg" viewBox="0 0 1036 1036" aria-hidden="true">
  <path d="M518 587.45s-75.08 175.46-215.16 254.5C362.01 906.49 432.93 970.05 518 1030c85.06-59.95 155.98-123.51 215.17-188.05C593.08 762.91 518 587.45 518 587.45Z"/>
  <path d="M518 196.21C449.88 343.57 261.48 446.95 82.13 494.41c32.3 79.99 78.34 166.78 143.53 254.13l43.08-126.61C367.47 563.1 473.16 498.12 518 401.1c44.84 97.02 150.52 162 249.27 220.83l43.07 126.61c65.19-87.35 111.23-174.14 143.53-254.13C774.51 446.96 586.12 343.57 518 196.21Z"/>
  <path d="M1029.73 122.15S799.51 6 518.01 6v.02L517.98 6C236.48 6 6.27 122.15 6.27 122.15s-6.39 117.01 43.37 280.58l83.81-132.09C287.98 226.15 442.73 161.58 517.99 44.87c75.27 116.71 230.01 181.28 384.54 225.77l83.82 132.09c49.77-163.57 43.38-280.58 43.38-280.58Z"/>
</svg>
