<svg xmlns="http://www.w3.org/2000/svg" width="56" height="56" fill="none">
  <rect width="56" height="56" fill="#032327" rx="16"/>
  <path fill="#fff" d="M28.0013 43.7183c-8.8869 0-16.1146-7.0519-16.1146-15.7196 0-8.6676 7.2277-15.7195 16.1146-15.7195 8.8868 0 16.1173 7.0519 16.1173 15.7195 0 8.6677-7.2305 15.7196-16.1173 15.7196Zm0-30.7983c-8.5337 0-15.4767 6.7644-15.4767 15.0815s6.943 15.0815 15.4767 15.0815c8.5336 0 15.4766-6.7644 15.4766-15.0815S36.5349 12.92 28.0013 12.92Z"/>
  <path fill="#fff" d="M27.9993 43.5963c-4.7144 0-9.1469-1.6185-12.4843-4.5543-3.3483-2.9467-5.1908-6.8684-5.1908-11.042 0-4.1736 1.8425-8.0953 5.1908-11.042 3.3374-2.9358 7.7699-4.5543 12.4843-4.5543 4.7145 0 9.1469 1.6185 12.4843 4.5543 3.3483 2.9467 5.1908 6.8684 5.1908 11.042 0 4.1736-1.8453 8.0953-5.1908 11.042-3.3374 2.9358-7.7698 4.5543-12.4843 4.5543Zm0-30.5518c-9.3933 0-17.0344 6.7096-17.0344 14.9555s7.6411 14.9555 17.0344 14.9555c9.3933 0 17.0345-6.7096 17.0345-14.9555s-7.6412-14.9555-17.0345-14.9555Z"/>
  <path fill="#fff" d="M28.3838 8h-.7666v40h.7666V8Z"/>
  <path fill="#fff" d="M27.9993 43.6115c-8.0244 0-14.554-7.0026-14.554-15.61 0-8.6074 6.5296-15.61 14.554-15.61 8.0245 0 14.5568 7.0026 14.5568 15.61 0 8.6074-6.5296 15.61-14.5568 15.61Zm0-30.5819c-7.674 0-13.9161 6.7178-13.9161 14.9719s6.2421 14.9719 13.9161 14.9719 13.9162-6.7178 13.9162-14.9719-6.2422-14.9719-13.9162-14.9719Z"/>
</svg>
